<svg width="21" height="16" viewBox="0 0 21 16" fill="none" xmlns="http://www.w3.org/2000/svg">
<path d="M19.2121 0H1.78785C0.826847 0 0.0454102 0.766147 0.0454102 1.70835V13.6667C0.0454102 14.6089 0.826847 15.375 1.78785 15.375H19.2121C20.1731 15.375 20.9545 14.6089 20.9545 13.6667V1.70835C20.9545 0.766147 20.1731 0 19.2121 0ZM1.78785 0.854153H19.2121C19.2763 0.854153 19.3329 0.877096 19.3931 0.890068C17.8846 2.24367 12.8826 6.73013 11.1321 8.27639C10.9952 8.39735 10.7744 8.54165 10.5 8.54165C10.2256 8.54165 10.0048 8.39735 9.86742 8.27599C8.11714 6.72997 3.11484 2.24327 1.60657 0.890149C1.66693 0.877176 1.72361 0.854153 1.78785 0.854153ZM0.916609 13.6667V1.70835C0.916609 1.62467 0.942337 1.54875 0.965369 1.47228C2.11994 2.50833 5.61013 5.63874 7.87321 7.65643C5.61748 9.55616 2.1264 12.8012 0.962633 13.8893C0.942092 13.8166 0.916609 13.7456 0.916609 13.6667ZM19.2121 14.5208H1.78785C1.71826 14.5208 1.65639 14.4971 1.59142 14.4818C2.79398 13.3579 6.30727 10.0941 8.52335 8.23539C8.81224 8.49232 9.07614 8.72659 9.28417 8.91037C9.64321 9.2282 10.0635 9.39585 10.5 9.39585C10.9364 9.39585 11.3567 9.22816 11.7153 8.91077C11.9234 8.72691 12.1875 8.49244 12.4766 8.23539C14.6928 10.0939 18.2056 13.3574 19.4085 14.4818C19.3435 14.4971 19.2817 14.5208 19.2121 14.5208ZM20.0833 13.6667C20.0833 13.7456 20.0578 13.8166 20.0373 13.8893C18.8731 12.8007 15.3824 9.55596 13.1267 7.65647C15.3899 5.63878 18.8796 2.50865 20.0345 1.4722C20.0576 1.54867 20.0833 1.62462 20.0833 1.70831V13.6667Z" fill="#535A60"/>
</svg>
