<svg width="23" height="22" viewBox="0 0 23 22" fill="none" xmlns="http://www.w3.org/2000/svg">
<path d="M13.5562 2.8501H10.2456C10.0629 2.8501 9.91455 2.97703 9.91455 3.13342C9.91455 3.28981 10.0629 3.41674 10.2456 3.41674H13.5562C13.7389 3.41674 13.8872 3.28981 13.8872 3.13342C13.8872 2.97703 13.7389 2.8501 13.5562 2.8501Z" fill="#535A60"/>
<path d="M15.8733 2.8501H15.5422C15.3595 2.8501 15.2112 2.97703 15.2112 3.13342C15.2112 3.28981 15.3595 3.41674 15.5422 3.41674H15.8733C16.056 3.41674 16.2043 3.28981 16.2043 3.13342C16.2043 2.97703 16.056 2.8501 15.8733 2.8501Z" fill="#535A60"/>
<path d="M12.312 16.4502H11.49C10.9865 16.4502 10.5767 16.801 10.5767 17.2319V17.3688C10.5767 17.7997 10.9865 18.1502 11.4897 18.1502H12.3117C12.8153 18.1502 13.2251 17.7997 13.2251 17.3688V17.2319C13.2251 16.801 12.8153 16.4502 12.312 16.4502ZM12.563 17.3688C12.563 17.4872 12.4505 17.5835 12.3121 17.5835H11.49C11.3513 17.5835 11.2388 17.4872 11.2388 17.3688V17.2319C11.2388 17.1132 11.3513 17.0168 11.49 17.0168H12.3117C12.4505 17.0168 12.563 17.1132 12.563 17.2319V17.3688Z" fill="#535A60"/>
<path d="M16.3323 2H7.46949C6.80968 2 6.27271 2.45956 6.27271 3.02425V17.9757C6.27271 18.5404 6.80968 19 7.46949 19H16.332C16.9918 19 17.5288 18.5404 17.5288 17.976V3.02425C17.5288 2.45956 16.9918 2 16.3323 2ZM16.8667 17.9757C16.8667 18.2279 16.627 18.4333 16.3323 18.4333H7.46949C7.17452 18.4333 6.93484 18.2279 6.93484 17.976V3.02425C6.93484 2.77207 7.17452 2.56668 7.46949 2.56668H16.332C16.6269 2.56668 16.8666 2.77211 16.8666 3.02425V17.9757H16.8667Z" fill="#535A60"/>
<path d="M17.1977 3.7002H6.60375C6.42102 3.7002 6.27271 3.82713 6.27271 3.98352V15.8835C6.27271 16.0399 6.42102 16.1668 6.60375 16.1668H17.1977C17.3804 16.1668 17.5287 16.0399 17.5287 15.8835V3.98352C17.5287 3.82713 17.3804 3.7002 17.1977 3.7002ZM16.8666 15.6002H6.9348V4.26687H16.8666V15.6002Z" fill="#535A60"/>
</svg>
