<svg width="120" height="120" viewBox="0 0 120 120" fill="none" xmlns="http://www.w3.org/2000/svg">
<path fill-rule="evenodd" clip-rule="evenodd" d="M58.7527 17.1255V18.8511C58.7527 19.4034 59.2004 19.8511 59.7527 19.8511H59.9892H60.2257C60.778 19.8511 61.2257 19.4034 61.2257 18.8511V17.1255V15.3999C61.2257 14.8476 60.778 14.3999 60.2257 14.3999H59.9892H59.7527C59.2004 14.3999 58.7527 14.8476 58.7527 15.3999V17.1255ZM39.3792 19.926L39.1225 20.2037C38.7675 20.5879 38.7685 21.1808 39.1249 21.5637L40.4109 22.9452L41.6007 24.2236C41.9947 24.6469 42.6647 24.6487 43.061 24.2275L43.1902 24.0902C43.3263 23.9454 43.4553 23.7958 43.5701 23.6559C43.8656 23.2958 43.8286 22.7793 43.5137 22.436L41.0118 19.7078C40.6373 19.2993 40.0022 19.2739 39.6179 19.6731C39.5403 19.7537 39.46 19.8385 39.3792 19.926ZM77.7815 22.3558L76.4959 23.737C76.1384 24.1212 76.1386 24.7165 76.4966 25.1003L76.7543 25.3766L76.9153 25.5493C77.3109 25.9736 77.9834 25.9732 78.3786 25.5486L79.5677 24.2711L80.8533 22.8898C81.2108 22.5056 81.2106 21.9104 80.8526 21.5265L80.5949 21.2502L80.4339 21.0776C80.0383 20.6533 79.3658 20.6536 78.9706 21.0783L77.7815 22.3558ZM57.8596 22.8125C55.1363 23.2294 52.2507 24.7826 50.1346 26.9706C45.7951 31.4577 44.5871 38.7241 47.24 44.3804C47.4683 44.8674 48.6992 48.3371 49.9752 52.0911L52.2952 58.9165L52.2988 61.7413L52.3022 64.5661L54.4075 68.323C56.2822 71.6686 56.5639 72.0993 56.98 72.2565C57.5682 72.4786 62.4311 72.496 63.0143 72.278C63.3582 72.1494 63.7705 71.5071 65.554 68.3223L67.6832 64.5201V61.7126V58.905L70.0035 52.0854C71.2796 48.3346 72.5105 44.8674 72.7387 44.3804C73.9843 41.7232 74.4331 38.3288 73.9389 35.3034C72.6075 27.1508 65.5146 21.6409 57.8596 22.8125ZM63.1492 25.8867C66.266 26.8491 68.9696 29.3023 70.3802 32.4479C71.1749 34.22 71.408 35.2192 71.4942 37.2226C71.5993 39.6689 71.182 41.7385 70.1694 43.7924C69.9697 44.1976 68.8494 47.3628 67.6799 50.8262L65.5536 57.1234L59.9892 57.124L54.4248 57.1245L52.3764 51.0477C51.2499 47.7055 50.0649 44.3744 49.7433 43.6451C48.6923 41.2619 48.5169 40.4296 48.5169 37.8255C48.5169 35.8467 48.5595 35.3963 48.8362 34.4518C50.2278 29.7008 53.5996 26.4937 58.2031 25.5427C58.392 25.5036 59.3503 25.4935 60.3327 25.5201C61.6452 25.5558 62.3921 25.653 63.1492 25.8867ZM57.425 36.1106L54.9215 41.4917C54.7982 41.7568 54.797 42.0625 54.9183 42.3285L54.9881 42.4815C55.1317 42.796 55.4037 43.1359 55.5926 43.2365C55.8392 43.3681 56.9336 43.4204 59.4744 43.4219L63.0127 43.4241L60.9513 47.8431C60.258 49.3295 59.6418 50.696 59.2676 51.5334C59.0536 52.0126 59.2498 52.5734 59.7141 52.818L60.2238 53.0867C60.7269 53.3518 61.3489 53.1457 61.5918 52.6315C62.0784 51.6015 62.9121 49.832 63.8322 47.8576C66.7091 41.6838 66.736 41.5954 65.9421 40.9258C65.6028 40.6397 65.4033 40.6248 61.8937 40.6248H58.2023L60.3203 36.0841L62.0372 32.4033C62.2621 31.9212 62.0702 31.3475 61.6006 31.0977L61.2807 30.9275L61.0541 30.807C60.548 30.5379 59.9197 30.7484 59.6779 31.2681L57.425 36.1106ZM32.9228 36.4259V36.8255C32.9228 37.3778 33.3705 37.8255 33.9228 37.8255H36.1516H38.3803C38.9326 37.8255 39.3803 37.3778 39.3803 36.8255V36.4259V36.0262C39.3803 35.474 38.9326 35.0262 38.3803 35.0262H36.1516H33.9228C33.3705 35.0262 32.9228 35.474 32.9228 36.0262V36.4259ZM82.731 35.0744C82.2609 35.0983 81.8807 35.4576 81.8532 35.9275C81.8423 36.1132 81.8346 36.3174 81.8346 36.5242V36.8255C81.8346 37.3778 82.2823 37.8255 82.8346 37.8255H84.4451H86.0556C86.6078 37.8255 87.0556 37.3778 87.0556 36.8255V36.4259V36.0262C87.0556 35.474 86.6078 35.0262 86.0556 35.0262H84.5367C83.8531 35.0262 83.2086 35.0502 82.731 35.0744ZM39.0684 50.0201L37.8173 51.3643C37.4587 51.7495 37.4601 52.3468 37.8206 52.7304L38.111 53.0395L38.3098 53.251C38.706 53.6726 39.3763 53.671 39.7705 53.2475L40.96 51.9696L42.2461 50.5879C42.6025 50.205 42.6036 49.6121 42.2485 49.2279L41.9918 48.9502C41.8963 48.8469 41.8014 48.7472 41.7104 48.6538C41.3393 48.2726 40.735 48.2849 40.3629 48.6651C40.0107 49.025 39.552 49.5005 39.0684 50.0201ZM77.9865 48.9502L77.7299 49.2279C77.3748 49.6121 77.3759 50.205 77.7323 50.5879L79.0184 51.9696L80.2079 53.2475C80.6021 53.671 81.2723 53.6726 81.6686 53.251L81.8673 53.0395L82.1578 52.7304C82.5183 52.3468 82.5197 51.7495 82.1611 51.3643L80.91 50.0201C80.4264 49.5005 79.9677 49.025 79.6155 48.6651C79.2434 48.2849 78.6391 48.2726 78.268 48.6538C78.177 48.7472 78.0821 48.8469 77.9865 48.9502ZM24.1289 51.8122C22.5715 52.3202 21.3818 54.0355 21.3818 55.7726C21.3818 57.3112 22.6349 72.5531 22.7918 72.9234C22.9035 73.187 25.5562 75.4127 30.5185 79.406L38.0751 85.4871L38.1138 87.2182L38.1524 88.9494H37.2445C36.4241 88.9494 36.2977 88.9909 35.9349 89.38L35.5333 89.8107V93.0746V96.3386L35.9349 96.7692L36.3365 97.1999H47.1387H57.9408L58.2689 96.8481C58.4494 96.6545 58.6348 96.2733 58.6808 96.0009C58.7268 95.7285 58.7463 91.4118 58.7242 86.4083L58.6857 77.7022C58.6846 77.4508 58.5888 77.2089 58.4173 77.0249L51.6769 69.7912C43.6829 61.2117 43.8369 61.3443 41.8533 61.3443C40.9221 61.3443 40.6615 61.407 39.88 61.8195C38.9 62.3368 38.198 63.0984 37.6979 64.1866C37.2669 65.1245 37.2555 67.2014 37.6758 68.1778C37.8334 68.5434 38.808 69.9357 39.8419 71.2717L41.7219 73.7006L39.5589 73.7414L37.3961 73.7821L33.8464 69.9756L30.2967 66.1693L29.6213 60.3761C29.0916 55.8341 28.8831 54.4445 28.6558 53.9409C28.285 53.1197 27.3156 52.204 26.5019 51.9067C25.839 51.6645 24.7187 51.6198 24.1289 51.8122ZM93.4201 51.907C92.6506 52.2114 91.6779 53.1537 91.3239 53.9381C91.0987 54.4368 90.8852 55.8534 90.3534 60.3788L89.6715 66.1801L86.1269 69.9811L82.5823 73.7821L80.4195 73.7414L78.2565 73.7006L80.1365 71.2717C81.1703 69.9357 82.145 68.5434 82.3026 68.1778C82.7238 67.1992 82.7074 65.1271 82.2707 64.1777C81.7679 63.0845 81.0798 62.3376 80.0984 61.8195C79.3169 61.407 79.0563 61.3443 78.125 61.3443C76.1415 61.3443 76.2955 61.2117 68.3015 69.7912L61.5611 77.0249C61.3896 77.2089 61.2938 77.4508 61.2927 77.7022L61.2542 86.4083C61.232 91.4118 61.2516 95.7285 61.2976 96.0009C61.3436 96.2733 61.5289 96.6545 61.7095 96.8481L62.0376 97.1999H72.8397H83.6419L84.0435 96.7692L84.4451 96.3386V93.0746V89.8107L84.0435 89.38C83.6806 88.9909 83.5542 88.9494 82.7339 88.9494H81.826L81.8646 87.2182L81.9033 85.4871L89.4599 79.4014C94.3328 75.4771 97.077 73.1749 97.1866 72.9189C97.3507 72.5361 98.6009 57.1294 98.5939 55.5789C98.5877 54.2355 97.6914 52.7615 96.467 52.0808C95.7466 51.6804 94.2141 51.593 93.4201 51.907ZM26.0781 54.8355C26.3971 55.1776 26.4505 55.5044 27.071 60.9129C27.4318 64.0566 27.7815 66.8608 27.8481 67.1444C27.9437 67.5507 28.837 68.5872 32.0604 72.0322C35.4789 75.6854 36.2307 76.4198 36.6324 76.4971C36.8969 76.5479 38.896 76.5694 41.0747 76.5448L45.0363 76.4999L45.4519 76.0009C46.1616 75.1489 46.0602 74.9407 43.0528 71.0762C41.5882 69.1942 40.2788 67.4725 40.1429 67.2503C39.9536 66.9403 39.9112 66.652 39.9605 66.0133C40.0165 65.2888 40.0887 65.1178 40.5158 64.6981C41.1125 64.1117 41.8198 63.9389 42.4852 64.2171C42.8135 64.3542 45.0766 66.6803 49.555 71.4836L56.1422 78.5482V83.7489V88.9494H48.3795H40.6168V86.6202C40.6168 84.9894 40.5653 84.2156 40.4451 84.0394C40.3507 83.9009 36.8729 81.054 32.7167 77.7129L25.1601 71.638L24.5843 64.3451C23.8833 55.4693 23.8794 55.3183 24.3296 54.8356C24.7948 54.3366 25.6128 54.3366 26.0781 54.8355ZM95.6488 54.8356C96.0952 55.3141 96.0949 55.3246 95.3947 64.2714L94.8182 71.638L87.2638 77.7095C83.1088 81.0489 79.6311 83.8958 79.5355 84.036C79.4125 84.2164 79.3616 84.9741 79.3616 86.6202V88.9494H71.5989H63.8362V83.7365V78.5235L70.4448 71.4358C77.6152 63.7457 77.537 63.8148 78.646 64.1711C79.4777 64.4384 79.9451 65.0725 80.0195 66.0344C80.0672 66.6514 80.023 66.9431 79.8354 67.2503C79.6995 67.4725 78.3902 69.1942 76.9256 71.0762C73.9182 74.9407 73.8168 75.1489 74.5264 76.0009L74.9421 76.4999L78.9036 76.5448C81.0824 76.5694 83.0815 76.5479 83.3459 76.4971C83.7477 76.4198 84.4995 75.6854 87.918 72.0322C91.1413 68.5872 92.0347 67.5507 92.1303 67.1444C92.1969 66.8608 92.5466 64.0566 92.9074 60.9129C93.5278 55.5044 93.5813 55.1776 93.9003 54.8355C94.3655 54.3366 95.1836 54.3366 95.6488 54.8356ZM65.1082 60.8828C65.1001 61.369 65.0887 61.9822 65.083 62.2456L65.0727 62.7245H59.997H54.9215L54.8791 62.0983C54.8559 61.754 54.8581 61.1233 54.8841 60.6969L54.9312 59.9216L60.0271 59.9602L65.123 59.9988L65.1082 60.8828ZM63.7737 66.1499C63.5797 66.4942 63.0661 67.4212 62.6325 68.2099L61.844 69.6437H59.9892H58.1344L57.3459 68.2099C56.9123 67.4212 56.3987 66.4942 56.2047 66.1499L55.8519 65.5237H59.9892H64.1265L63.7737 66.1499ZM56.1422 93.0746V94.4006H47.143H38.1437V93.0746V91.7487H47.143H56.1422V93.0746ZM81.8346 93.0746V94.4006H72.8354H63.8362V93.0746V91.7487H72.8354H81.8346V93.0746Z" fill="white"/>
</svg>
