<svg width="120" height="120" viewBox="0 0 120 120" fill="none" xmlns="http://www.w3.org/2000/svg">
<path fill-rule="evenodd" clip-rule="evenodd" d="M58.2131 14.5421C53.3099 15.4461 49.4118 18.3894 47.3152 22.7708C46.6938 24.0693 46.1503 25.8264 46.038 26.8993L45.9645 27.602L43.3179 27.6772C40.2705 27.7636 39.3671 27.9217 37.9146 28.6226C35.2484 29.9093 33.4389 32.1342 32.778 34.9387C32.6218 35.601 32.5928 37.596 32.5913 47.7786L32.5894 59.8343L31.681 60.273C30.5226 60.8323 29.593 61.7383 29.0542 62.8329C28.661 63.632 28.6425 63.7346 28.6425 65.1137C28.6425 66.4863 28.6625 66.5988 29.0463 67.3835C30.071 69.4783 32.4636 70.776 34.6053 70.3985C37.9722 69.8053 39.9614 66.5379 38.8896 63.3615C38.4315 62.0043 37.0534 60.5667 35.8158 60.1551L35.2207 59.957L35.2222 48.028C35.2234 37.9648 35.2523 35.9912 35.4067 35.4105C36.0191 33.1086 37.7134 31.3658 40.0265 30.6584C40.7777 30.4286 41.2037 30.3957 43.4193 30.3957H45.9531L46.1089 31.4145C46.5674 34.4102 47.9908 37.1065 50.5047 39.7408C51.5421 40.8279 52.02 41.6679 52.3112 42.9167L52.4878 43.6738L51.2155 43.7094L49.9433 43.745L49.9077 45.0924L49.8722 46.4399H51.1819H52.4917L52.5331 48.7066L52.5746 50.9734L52.9838 51.3389C53.3571 51.6723 53.4738 51.7044 54.3129 51.7044H55.2328L55.3126 52.4685C55.5283 54.5317 57.1643 56.3412 59.3408 56.9237C62.2417 57.6999 65.2991 55.6219 65.8316 52.512L65.9698 51.7044H66.8938C67.748 51.7044 67.8454 51.6767 68.184 51.338L68.5502 50.9716V48.71V46.4484L69.8972 46.4128L71.2442 46.3772V45.0611V43.745L69.9599 43.7092C68.9536 43.6813 68.6755 43.6351 68.6755 43.4964C68.6755 43.0805 69.3356 41.3263 69.6495 40.908C69.8374 40.6576 70.491 39.8975 71.1021 39.219C72.4031 37.7741 72.9614 36.9807 73.6705 35.5692C74.3313 34.2539 74.7443 33.0171 75.0113 31.5551L75.2229 30.3957H77.6867C79.4644 30.3957 80.3499 30.4477 80.8668 30.5823C83.0811 31.1593 84.8879 32.8473 85.6216 35.0244C85.895 35.8355 85.8999 35.972 85.939 43.8712L85.9786 51.8942L85.1389 52.2602C84.0113 52.7515 82.9689 53.7736 82.4262 54.9199C82.0482 55.7182 82.0199 55.87 82.0199 57.0942C82.0199 58.3136 82.0492 58.4723 82.419 59.2531C83.4642 61.4604 85.7575 62.7417 87.9996 62.3713C89.2069 62.1719 90.1598 61.6907 90.9868 60.863C93.6354 58.2121 92.88 53.909 89.4844 52.3043L88.6128 51.8924L88.5719 43.6196L88.5309 35.3468L88.2379 34.4694C87.6679 32.7636 87.1038 31.8003 85.9716 30.6C84.7526 29.3074 83.0029 28.3011 81.3404 27.9365C80.8601 27.8312 79.4062 27.7233 77.8558 27.6779L75.1954 27.5999L75.1192 27.149C74.6269 24.2322 73.6356 21.9441 71.942 19.8147C70.7385 18.3018 68.8194 16.7487 67.0467 15.8527C66.2957 15.4733 64.5607 14.8877 63.4756 14.6475C62.2169 14.369 59.4528 14.3136 58.2131 14.5421ZM63.3976 17.3696C67.0246 18.2114 70.3309 21.1 71.7281 24.6482C72.3343 26.1874 72.4838 27.0573 72.4896 29.0795C72.4954 31.1156 72.3532 31.9008 71.677 33.5639C71.0977 34.9884 70.3554 36.0935 69.0159 37.5258C67.2085 39.4581 66.4301 40.8566 66.1131 42.7404L65.9651 43.6196L63.9372 43.6541L61.9094 43.6885V41.3847V39.0808L64.3868 37.1984C65.7493 36.1632 66.9389 35.226 67.0304 35.1158C67.255 34.8449 67.2613 34.1187 67.0426 33.7098C66.9027 33.4483 65.8584 32.8732 62.2253 31.0572C59.6741 29.7818 57.5613 28.7146 57.5303 28.6856C57.4994 28.6565 58.3916 27.7516 59.513 26.6747L60.8183 25.4212C61.2215 25.0341 61.229 24.3916 60.835 23.9951L60.5737 23.7322L60.3023 23.4591C59.9122 23.0665 59.2775 23.0655 58.8861 23.4567L56.9383 25.4036C55.4768 26.8644 54.1852 28.2378 54.0679 28.4556C53.742 29.0611 53.9083 29.691 54.5066 30.1175C54.7696 30.3049 56.8529 31.3884 59.1363 32.525C61.4195 33.6617 63.2857 34.6206 63.2833 34.6559C63.2808 34.6912 62.5145 35.2841 61.5804 35.9735C59.0682 37.8275 59.2781 37.3868 59.2781 40.809V43.6823H57.2268H55.1756L55.0887 43.0242C54.9637 42.0755 54.4781 40.7103 53.9366 39.7845C53.6784 39.3431 52.9508 38.4415 52.3196 37.7811C49.9522 35.3041 48.9373 33.1733 48.622 30.0187C47.9878 23.6717 52.6613 17.9423 59.1528 17.1088C60.2781 16.9643 62.145 17.0789 63.3976 17.3696ZM65.919 47.756V49.0721H60.5938H55.2685V47.756V46.4399H60.5938H65.919V47.756ZM63.1856 52.1338C63.0688 53.2167 62.1057 54.1651 60.9014 54.3833C60.2665 54.4982 59.2487 54.1625 58.7648 53.6786C58.3196 53.2331 57.9068 52.4219 57.9026 51.9839L57.8998 51.6994L60.5624 51.7332L63.225 51.7671L63.1856 52.1338ZM88.7511 54.9117C90.8943 56.4186 89.8859 59.721 87.2825 59.721C85.1073 59.721 83.8402 57.2701 85.1306 55.5584C85.7184 54.7786 86.4615 54.4347 87.4365 54.4911C88.0564 54.5269 88.327 54.6134 88.7511 54.9117ZM35.0985 62.7661C36.9632 63.7096 36.9393 66.5746 35.0592 67.4851C34.4754 67.7678 33.4616 67.8359 32.9173 67.6289C32.3801 67.4246 31.6116 66.6305 31.3905 66.0517C30.9173 64.812 31.4724 63.3167 32.6162 62.7502C33.3497 62.3871 34.362 62.3935 35.0985 62.7661ZM82.4291 65.4816C82.0284 65.8394 82.0187 65.8732 81.9573 67.119L81.8946 68.3911L81.0211 68.7593C80.5407 68.9617 80.087 69.1274 80.0129 69.1274C79.9387 69.1274 79.6596 68.9037 79.3926 68.6302C79.1256 68.3567 78.7169 68.0426 78.4842 67.9321C77.6978 67.5588 77.4482 67.7143 75.0831 70.05C73.8857 71.2325 72.8262 72.3874 72.7266 72.6188C72.4662 73.2233 72.6136 73.6667 73.3382 74.4597L73.9708 75.1522L73.5884 76.1196L73.2061 77.0869L71.9324 77.1495C70.6848 77.211 70.6513 77.2206 70.2937 77.6216L69.9285 78.031V81.0291C69.9285 82.678 69.9835 84.1719 70.0507 84.3486C70.273 84.9336 70.8614 85.1706 72.0926 85.1711C73.1734 85.1716 73.1941 85.1774 73.334 85.5163C73.4124 85.706 73.6027 86.1512 73.7569 86.5058L74.0373 87.1506L73.4765 87.6966C73.168 87.9969 72.8306 88.4046 72.7266 88.6025C72.3449 89.3295 72.5143 89.5854 75.0427 92.1021C77.3617 94.4102 77.4073 94.4472 77.9331 94.4472C78.4094 94.4472 78.5456 94.3726 79.1871 93.7606L79.9067 93.0738L80.9313 93.4785L81.9557 93.8832L81.9565 95.1149C81.9572 96.3003 81.9707 96.3601 82.3127 96.7023C82.7902 97.18 83.2665 97.2359 86.4167 97.1843C88.2956 97.1536 89.1194 97.0943 89.3292 96.9749C89.7767 96.7205 89.9764 96.0844 89.9764 94.9136V93.8679L90.9475 93.482L91.9185 93.0961L92.4824 93.6319C93.1873 94.3017 93.4705 94.4472 94.068 94.4472C94.5167 94.4472 94.6702 94.3194 96.8955 92.0934C99.1207 89.8672 99.2485 89.7137 99.2485 89.2648C99.2485 88.6603 99.1013 88.3795 98.4089 87.6633L97.8487 87.084L98.0932 86.5978C98.2276 86.3305 98.4059 85.9003 98.4895 85.6417L98.6415 85.1716H99.7009C100.886 85.1716 101.52 84.9737 101.775 84.5242C101.895 84.3143 101.954 83.4903 101.985 81.6106C102.036 78.4593 101.98 77.9828 101.503 77.5051C101.161 77.1629 101.101 77.1495 99.916 77.1488L98.6847 77.148L98.2802 76.1232L97.8756 75.0983L98.5621 74.3784C99.174 73.7366 99.2485 73.6004 99.2485 73.1239C99.2485 72.5979 99.2116 72.5522 96.9086 70.2369C95.3816 68.7015 94.4502 67.8583 94.2277 67.8093C93.7448 67.7033 93.1352 68.004 92.5004 68.6614L91.9546 69.2267L91.3101 68.9462C90.9556 68.7919 90.5106 68.6015 90.321 68.5231C89.9822 68.3831 89.9764 68.3624 89.9759 67.2812C89.9754 66.0496 89.7385 65.4609 89.1537 65.2386C88.977 65.1714 87.4837 65.1164 85.8354 65.1164H82.8384L82.4291 65.4816ZM87.2198 68.6301C87.2198 70.1051 87.5311 70.5345 88.8487 70.8772C89.1588 70.958 90.0194 71.3082 90.761 71.6556C92.3323 72.3918 92.475 72.3872 93.3467 71.5715L93.9387 71.0175L94.992 72.0768L96.0454 73.136L95.5126 73.6791C94.733 74.4737 94.7037 74.8778 95.3361 76.1078C95.6129 76.6463 95.9906 77.584 96.1757 78.1915C96.6035 79.5969 96.8464 79.7807 98.2775 79.7813L99.2485 79.7818V81.1606V82.5394H98.2004C96.8359 82.5394 96.5997 82.7095 96.2338 83.9559C96.0881 84.4523 95.7201 85.3557 95.416 85.9636C94.6665 87.4617 94.6863 87.7643 95.5949 88.7152L96.0465 89.1877L95.0192 90.2154L93.9919 91.2431L93.5816 90.8586C92.5853 89.9245 92.1754 89.8587 91.1194 90.4636C90.732 90.6855 89.8286 91.0663 89.112 91.3097C87.4617 91.8702 87.302 92.053 87.2384 93.453L87.1933 94.4472H85.8909H84.5885V93.5009C84.5885 92.0169 84.4347 91.8309 82.7717 91.3049C82.2893 91.1524 81.4588 90.8098 80.9263 90.5438C79.5979 89.8803 79.3424 89.9054 78.4159 90.7914L77.9445 91.2423L76.882 90.1848L75.8196 89.1276L76.3155 88.622C76.5883 88.344 76.8759 87.9315 76.9547 87.7054C77.0859 87.3291 77.0502 87.1961 76.5336 86.1338C76.2231 85.4955 75.8495 84.572 75.7036 84.0814C75.2923 82.7001 75.1856 82.614 73.793 82.5394L72.6225 82.4767L72.5869 81.1292L72.5513 79.7818H73.611C74.5665 79.7818 74.7083 79.7501 75.0538 79.4593C75.2861 79.2639 75.4904 78.9304 75.5728 78.6132C75.7962 77.7522 76.163 76.8249 76.6431 75.9082C77.1974 74.8497 77.1592 74.5245 76.3804 73.6727L75.8348 73.0758L76.8497 72.0491L77.8647 71.0225L78.4733 71.5699C79.3409 72.3502 79.6589 72.3875 80.7164 71.8334C81.6327 71.3532 82.5597 70.9862 83.4204 70.7627C83.7375 70.6803 84.0708 70.4759 84.2661 70.2435C84.5566 69.8982 84.5885 69.7558 84.5885 68.8044V67.7486H85.9042H87.2198V68.6301ZM26.7431 73.4384C24.6753 74.2073 23.375 75.9342 23.2229 78.1138L23.1599 79.0154L22.3438 79.4926C19.9554 80.8892 18.7185 83.8766 19.375 86.6629C19.7852 88.4038 21.2006 90.2703 22.6413 90.9705C23.1732 91.2291 23.192 91.2578 23.192 91.8136C23.192 92.5225 23.4781 93.6545 23.8335 94.3513C23.9802 94.6391 24.4175 95.1911 24.8052 95.5781C27.3942 98.1621 31.6682 97.4179 33.3087 94.0975L33.7797 93.1441V85.1782C33.7797 77.2131 33.7797 77.2121 33.4987 76.5228C32.8956 75.0434 31.5049 73.7635 30.0363 73.3364C29.0429 73.0475 27.6811 73.0897 26.7431 73.4384ZM40.4206 73.3142C38.9646 73.7761 37.7455 74.8011 37.0843 76.1189L36.6616 76.9615V85.1116V93.2617L37.0764 94.1045C38.4006 96.7954 41.5534 97.8808 44.2247 96.5652C45.2437 96.0633 46.1093 95.2143 46.6066 94.2287C46.994 93.461 47.3268 91.9996 47.2133 91.5649C47.1639 91.3764 47.2926 91.2419 47.7948 90.9568C50.9646 89.1578 52.094 85.2941 50.4173 81.9844C50.0096 81.1794 48.744 79.8564 47.9414 79.3961L47.3178 79.0385L47.1617 77.9558C46.9643 76.5884 46.5608 75.7044 45.7355 74.8315C44.6344 73.6668 43.4102 73.1332 41.8706 73.1469C41.3487 73.1515 40.6962 73.2268 40.4206 73.3142ZM84.1435 73.3259C82.3518 73.8095 81.2443 74.4705 80.0322 75.7803C76.1202 80.0072 77.9909 86.9813 83.5137 88.7592C84.3532 89.0294 84.7611 89.0848 85.9042 89.0839C88.2386 89.082 89.866 88.4071 91.5578 86.739C92.3864 85.9221 92.6691 85.5378 93.0799 84.6703C93.7267 83.3044 93.9121 82.4963 93.8994 81.0979C93.8657 77.3864 91.4675 74.2995 87.9106 73.3895C86.7641 73.0962 85.0985 73.068 84.1435 73.3259ZM29.905 76.2084C30.2458 76.4082 30.584 76.7531 30.8005 77.1216L31.1485 77.7136L31.1838 84.908C31.2229 92.8829 31.2218 92.8957 30.4252 93.6669C29.315 94.7418 27.4763 94.693 26.5262 93.5634C26.15 93.1162 26.032 92.8665 25.8919 92.2223C25.8072 91.8329 25.82 91.815 26.183 91.815C26.7739 91.815 27.8259 91.5601 28.5456 91.2428L29.2004 90.954L28.5467 89.8109C27.9902 88.838 27.8555 88.6799 27.6412 88.7491C26.347 89.1672 26.0028 89.2119 25.2071 89.0658C23.3842 88.7308 22.2159 87.4924 21.8709 85.5291C21.6692 84.3808 22.4261 82.6887 23.4783 81.9359L24.0778 81.5068L24.7996 82.1954C25.4527 82.8187 26.3761 83.4168 26.6851 83.4168C26.7992 83.4168 27.6517 81.0507 27.5591 80.9908C26.4461 80.2711 26.0255 79.7293 25.8929 78.8445C25.5624 76.6401 27.9573 75.0665 29.905 76.2084ZM42.5427 75.9071C44.5441 76.4113 45.1852 79.1308 43.6146 80.4529C43.4012 80.6325 43.1309 80.8333 43.0139 80.899C42.8181 81.009 42.8296 81.1022 43.1581 82.0736C43.3545 82.6538 43.5616 83.204 43.6186 83.296C43.785 83.5655 44.6843 83.0867 45.5735 82.255L46.3466 81.5319L46.892 81.9458C47.5461 82.4422 48.1959 83.3713 48.3892 84.0865C48.5778 84.7837 48.4717 86.2561 48.1938 86.8011C47.7579 87.6556 47.1344 88.2846 46.3377 88.6733C45.251 89.2034 44.393 89.2803 43.3818 88.9385C42.9431 88.7901 42.5493 88.7035 42.5069 88.746C42.4645 88.7885 42.1634 89.2849 41.838 89.849C41.3784 90.6457 41.28 90.9078 41.3973 91.0223C41.6301 91.2497 43.0996 91.7058 43.8489 91.7834L44.5208 91.8529L44.4532 92.3561C44.3623 93.0351 43.7973 93.8011 43.1262 94.1555C42.4889 94.4921 41.4647 94.5468 40.8238 94.2784C40.2804 94.0508 39.5272 93.1925 39.3563 92.6061C39.2593 92.2731 39.2286 89.9225 39.2551 84.849L39.2929 77.5697L39.6372 77.0493C40.0183 76.4734 40.3767 76.2 41.0795 75.9491C41.6616 75.7413 41.8615 75.7355 42.5427 75.9071ZM86.8489 75.8971C88.826 76.2721 90.4266 77.6841 90.9943 79.554C91.7668 82.0981 90.6308 84.7134 88.24 85.8954C87.3216 86.3495 87.2572 86.3624 85.9081 86.3624C84.5819 86.3624 84.4822 86.3435 83.6503 85.9337C82.0521 85.1467 80.9862 83.7082 80.6807 81.9263C80.224 79.2619 82.0705 76.541 84.7268 75.9646C85.7253 75.7479 86.0144 75.7386 86.8489 75.8971Z" fill="white"/>
</svg>
