<svg width="120" height="120" viewBox="0 0 120 120" fill="none" xmlns="http://www.w3.org/2000/svg">
<path fill-rule="evenodd" clip-rule="evenodd" d="M50.5898 22.2839L50.5894 27.7677L49.7976 28.1742C49.3621 28.3977 48.7591 28.7984 48.4576 29.0646C47.7767 29.6659 46.9953 30.8153 46.7787 31.5344C46.5487 32.298 46.5552 33.823 46.7913 34.5207C47.2948 36.0078 48.8442 37.589 50.2781 38.0792C51.1894 38.3907 52.5815 38.3915 53.4894 38.0811C54.898 37.5995 56.0378 36.5594 56.7871 35.0722L57.2338 34.1854L57.1958 32.8923C57.1614 31.7226 57.1327 31.5472 56.8951 31.055C56.3175 29.8587 55.193 28.7288 53.9753 28.121L53.2791 27.7735V22.2868V16.8H51.9347H50.5903L50.5898 22.2839ZM66.8184 22.2839L66.8181 27.7677L66.0262 28.1742C65.0201 28.6907 64.2674 29.3557 63.6545 30.2697C63.0237 31.2105 62.8439 31.8235 62.8426 33.036C62.8411 34.6067 63.3452 35.6736 64.6739 36.9113C65.593 37.7677 66.3626 38.1479 67.3753 38.2463C69.34 38.4373 70.5287 38.0229 71.8604 36.6828C73.0764 35.4591 73.4416 34.6005 73.4437 32.9611C73.4445 32.2681 73.3936 31.8726 73.2483 31.4424C72.7933 30.0948 71.5997 28.8022 70.1559 28.0929L69.5077 27.7745V22.2872V16.8H68.1633H66.8189L66.8184 22.2839ZM32.057 27.728C30.6264 28.0031 28.8503 29.4085 28.1864 30.7908C27.7113 31.7803 27.6054 32.2783 27.6616 33.2577C27.7725 35.1859 29.1694 37.1411 31.01 37.9447L31.5476 38.1794L31.6099 39.6786C31.6442 40.5033 31.6724 42.3747 31.6726 43.8376L31.6729 46.4972L32.1904 47.5254C33.1846 49.5004 34.0599 50.3873 35.921 51.3052L37.0024 51.8386L40.3874 51.8912L43.7723 51.9439V50.5688V49.1936L40.5794 49.1557C37.4997 49.1192 37.3661 49.1099 36.8104 48.8923C36.1174 48.621 35.0516 47.6485 34.7531 47.0151C34.4464 46.3641 34.3628 45.1778 34.369 41.561L34.3746 38.2085L35.1602 37.8253C36.2652 37.2864 37.2343 36.3148 37.8176 35.1609C38.2197 34.3654 38.2465 34.2627 38.2806 33.3889C38.3489 31.6337 37.9482 30.6055 36.7159 29.3742C35.8218 28.481 34.9773 28.0111 33.8307 27.7687C33.0915 27.6126 32.7039 27.6037 32.057 27.728ZM86.0724 27.7511C83.3404 28.4513 81.3628 31.1839 81.78 33.6825C82.0612 35.3666 83.3499 37.0654 84.9552 37.868L85.7586 38.2697L85.7093 42.0705C85.6474 46.8455 85.6141 47.0063 84.4602 48.0949C83.4344 49.0625 83.2678 49.0981 79.4465 49.167L76.2776 49.224V50.565V51.906L79.6866 51.8702L83.0956 51.8344L84.1999 51.2734C86.0663 50.3251 86.8687 49.5205 87.8676 47.5956L88.3646 46.6377L88.3976 42.8063C88.4158 40.6989 88.4524 38.7999 88.479 38.5861C88.5241 38.2233 88.5639 38.1796 89.0763 37.9297C90.4331 37.2682 91.3388 36.3657 92.0012 35.0154C92.2914 34.4234 92.3165 34.295 92.3464 33.2475C92.3957 31.5108 92.0512 30.5942 90.9116 29.431C90.6267 29.1402 90.1508 28.7416 89.8541 28.5453C88.7631 27.8234 87.1291 27.4803 86.0724 27.7511ZM34.2656 30.5601C35.1299 30.9181 35.6076 31.7671 35.6091 32.9471C35.6108 34.3514 35.0909 35.2162 34.0615 35.5212C32.6168 35.9491 31.1526 35.4694 30.5958 34.3861C30.3411 33.8905 30.2601 32.8093 30.4262 32.1191C30.558 31.5711 31.0961 30.8893 31.6033 30.6277C32.2491 30.2945 33.5453 30.2617 34.2656 30.5601ZM53.2086 30.5687C54.9063 31.2379 55.0531 34.3871 53.4306 35.3355C52.8436 35.6787 51.7428 35.7673 50.9441 35.5356C49.7729 35.1961 49.1532 34.1651 49.2831 32.7724C49.3804 31.7271 49.7089 31.1448 50.4639 30.6786C51.0773 30.2998 52.3929 30.2472 53.2086 30.5687ZM69.4366 30.5667C71.1355 31.2448 71.2823 34.3868 69.6592 35.3355C69.0803 35.674 67.9709 35.7672 67.1956 35.5423C66.5089 35.3432 65.9244 34.8412 65.6982 34.2562C65.4888 33.7149 65.467 32.4599 65.6575 31.9022C65.8998 31.1926 66.6354 30.5648 67.4128 30.4041C67.9372 30.2958 68.9647 30.3783 69.4366 30.5667ZM88.3771 30.5864C88.8529 30.7944 89.4161 31.4048 89.5871 31.8979C89.7535 32.3776 89.7555 33.4869 89.5909 34.0555C89.3192 34.9943 88.5497 35.57 87.4626 35.6479C86.1238 35.7438 85.1629 35.3047 84.6853 34.3786C84.4764 33.9737 84.4409 33.7817 84.4463 33.0864C84.4497 32.6372 84.5083 32.1043 84.5765 31.9022C84.8151 31.1944 85.5519 30.5649 86.3302 30.4041C86.8863 30.2892 87.9046 30.3799 88.3771 30.5864ZM57.486 41.2238C54.2987 41.6248 50.8938 44.4155 49.817 47.5094C49.3806 48.7631 49.326 49.2234 49.2744 52.0785L49.2245 54.8371L48.9712 54.9941C48.1356 55.5119 47.3033 56.4188 46.8527 57.3022C46.6507 57.6983 46.6366 57.889 46.548 61.4211C46.4541 65.165 46.5133 73.4519 46.6461 75.1428C46.7123 75.9866 46.7474 76.105 47.0791 76.6036C47.5591 77.3249 48.5921 78.263 49.2459 78.5716L49.7741 78.8208L58.5606 78.8523C63.3931 78.8696 68.087 78.8449 68.9913 78.7975C70.5429 78.716 70.6617 78.6959 71.1039 78.4402C71.7936 78.0414 72.8834 76.8992 73.2128 76.23L73.4928 75.6613L73.524 67.9504C73.5412 63.7094 73.515 59.6318 73.4658 58.8889C73.3863 57.6882 73.3469 57.4841 73.1102 57.0503C72.7363 56.3651 72.0268 55.6049 71.3933 55.2107L70.8545 54.8754L70.8526 52.7681C70.8502 50.435 70.7518 49.29 70.4621 48.2283C69.575 44.9769 66.8295 42.2929 63.4803 41.4029C62.8503 41.2354 62.3886 41.2009 60.4331 41.1742C59.1655 41.1571 57.8394 41.1793 57.486 41.2238ZM63.9967 44.2905C65.6881 45.0699 66.7095 46.0191 67.4397 47.4899C67.6778 47.9695 67.9132 48.5774 67.9628 48.8409C68.0124 49.1043 68.0843 50.516 68.1225 51.9779L68.1919 54.636H60.0633H51.9347L51.9362 52.6963C51.9371 51.6295 51.9785 50.2609 52.0281 49.655C52.1146 48.601 52.14 48.5101 52.6169 47.5477C53.4438 45.8791 54.7906 44.7116 56.544 44.1434C57.2153 43.9258 58.6326 43.8502 61.2 43.8952L63.2153 43.9303L63.9967 44.2905ZM21.0473 54.7656C19.1402 55.2516 17.4422 56.9626 16.9334 58.9111C16.5138 60.518 17.0953 62.3067 18.4969 63.7204C19.3639 64.595 20.1024 65.0015 21.2471 65.2342C23.4495 65.6822 25.789 64.4431 26.9703 62.2032L27.3997 61.389L32.8972 61.3643L38.3948 61.3395V59.9993V58.659L32.8972 58.6564L27.3997 58.6539L27.0422 57.9003C26.428 56.6055 25.0378 55.3627 23.7129 54.9238C22.9453 54.6696 21.7113 54.5963 21.0473 54.7656ZM96.8325 54.7438C96.6239 54.7926 96.127 54.9879 95.7282 55.1778C94.7146 55.6606 93.5161 56.8662 93.0054 57.9167L92.6445 58.659H87.1739H81.7032V60.0001V61.3411H87.1718H92.6406L93.0376 62.1023C93.7695 63.5057 95.0846 64.678 96.381 65.0828C97.2502 65.3543 98.6033 65.3552 99.4682 65.085C100.731 64.6905 102.088 63.4721 102.753 62.1365C103.105 61.4294 103.148 61.2631 103.189 60.4602C103.268 58.9187 102.92 57.8083 102.021 56.7263C100.709 55.1477 98.5817 54.335 96.8325 54.7438ZM23.0208 57.4207C23.6692 57.5594 24.1727 57.9462 24.5179 58.5706C24.7771 59.0395 24.8052 59.1748 24.806 59.959C24.8068 60.7374 24.7769 60.8865 24.5176 61.392C24.1431 62.1225 23.6645 62.465 22.8155 62.6101C21.5044 62.8341 20.3607 62.3871 19.8279 61.4423C19.5639 60.9742 19.5338 60.8371 19.5328 60.1013C19.5314 59.1237 19.672 58.6671 20.13 58.1614C20.8138 57.4063 21.7875 57.1569 23.0208 57.4207ZM70.3402 57.4849C70.8039 57.7496 70.8041 57.7541 70.8041 66.8009C70.8041 74.1685 70.785 75.3156 70.6592 75.5646C70.3526 76.1707 70.9111 76.1402 60.097 76.1402C49.4213 76.1402 49.6428 76.1508 49.408 75.6279C49.2601 75.2987 49.1902 59.4673 49.332 58.4461C49.3839 58.0729 49.4933 57.7008 49.5751 57.6192C49.6569 57.5376 49.9296 57.4414 50.181 57.4055C50.4325 57.3695 55.0244 57.346 60.3851 57.3531C67.9551 57.363 70.1784 57.3924 70.3402 57.4849ZM99.1944 57.538C99.6344 57.7224 100.296 58.4637 100.421 58.9124C100.554 59.3922 100.553 60.4725 100.419 61.0057C100.288 61.5226 99.7718 62.1413 99.2419 62.416C98.6578 62.7187 97.307 62.7165 96.6366 62.4116C96.0526 62.146 95.7686 61.891 95.4978 61.389C95.3255 61.0698 95.291 60.846 95.291 60.0479C95.291 59.2304 95.3249 59.0217 95.5216 58.6229C95.7711 58.1173 96.3468 57.6405 96.9516 57.4386C97.3943 57.2908 98.7478 57.3508 99.1944 57.538ZM41.0836 60.0001V61.3411H42.428H43.7723V60.0001V58.659H42.428H41.0836V60.0001ZM76.2296 60.0026V61.3463L77.598 61.3197L78.9664 61.2932L78.9942 60.1916C79.0364 58.5255 79.1603 58.659 77.5722 58.659H76.2296V60.0026ZM59.5898 61.4447C59.0445 61.5741 58.7317 61.7632 58.2407 62.2601C57.6443 62.8634 57.4082 63.3729 57.4082 64.0565C57.4082 64.7239 57.6953 65.3375 58.2642 65.8865L58.6566 66.2651V69.2177V72.1703L60.025 72.1437L61.3934 72.1171L61.4188 69.2041L61.4443 66.291L61.8804 65.8258C63.0115 64.6196 62.9529 63.3054 61.7161 62.1456C61.0404 61.512 60.3143 61.2726 59.5898 61.4447ZM40.1233 68.1402C36.9048 68.2098 36.7417 68.2345 35.5972 68.8263C34.1638 69.5675 33.0557 70.7526 32.1947 72.465L31.6729 73.5029L31.6726 76.1625C31.6724 77.6254 31.6443 79.494 31.6102 80.315L31.5482 81.8078L30.8858 82.1157C29.6712 82.6801 28.2058 84.2989 27.8717 85.4451C27.6897 86.0698 27.6703 87.6278 27.8361 88.3052C28.0421 89.1465 28.5016 89.8875 29.3209 90.6998C29.746 91.1213 30.3124 91.5836 30.5795 91.727C31.6451 92.2992 33.4844 92.4616 34.5204 92.0751C35.8253 91.5881 36.9259 90.6962 37.5655 89.6076C38.0698 88.7493 38.2272 88.2152 38.2758 87.1985C38.3546 85.5519 37.9439 84.5537 36.6615 83.2745C36.1407 82.755 35.7122 82.4349 35.1401 82.138L34.3437 81.7248L34.3863 77.8309C34.4376 73.1466 34.4335 73.1693 35.4077 72.1392C36.1415 71.3632 36.7038 71.0509 37.5992 70.9218C37.9576 70.8701 39.4943 70.827 41.0141 70.8259L43.7776 70.824L43.7509 69.459L43.7243 68.0941L43.3882 68.0855C43.2034 68.0809 41.7342 68.1055 40.1233 68.1402ZM76.2691 68.1775C76.2441 68.2425 76.2358 68.8539 76.2506 69.5359L76.2776 70.7761L79.4465 70.8331C83.2678 70.902 83.4344 70.9376 84.4602 71.9053C85.616 72.9956 85.6496 73.1578 85.7095 77.9259L85.7573 81.7231L84.9546 82.1374C83.8378 82.7137 82.7459 83.7992 82.2244 84.8519L81.8472 85.6132L81.8496 86.9113C81.8516 87.9954 81.8856 88.2989 82.0557 88.7523C82.5675 90.1174 84.04 91.5618 85.4002 92.0336C86.1127 92.2806 87.7683 92.3455 88.429 92.1523C89.8036 91.7501 91.2121 90.5432 91.8721 89.202C92.6023 87.7184 92.6156 86.2466 91.912 84.8089C91.4232 83.81 90.1992 82.5916 89.2205 82.13C88.551 81.814 88.5257 81.7897 88.479 81.4141C88.4524 81.2002 88.4162 79.3012 88.3985 77.1938L88.3663 73.3624L87.8115 72.2974C86.8401 70.4328 86.0094 69.6204 84.1039 68.6713L83.0956 68.1691L79.7051 68.1141C77.0616 68.0713 76.3046 68.0853 76.2691 68.1775ZM50.6383 81.7826C48.8387 82.3533 47.2757 83.9233 46.7322 85.7059C46.5705 86.2363 46.5414 86.5234 46.5817 87.1906C46.6418 88.1852 46.8757 88.8478 47.5069 89.8124C48.0841 90.6942 48.785 91.3111 49.7976 91.8281L50.5894 92.2324L50.5898 97.7162L50.5903 103.2H51.9347H53.2791V97.7069V92.2137L53.6863 92.0315C54.3441 91.7372 55.4123 91.0022 55.7878 90.5854C56.2146 90.1115 56.8689 89.0259 57.0683 88.4607C57.2557 87.9294 57.2638 86.2889 57.0822 85.6087C56.8663 84.7996 56.4448 84.1353 55.6318 83.3222C54.8036 82.4939 54.0745 82.0647 53.0395 81.7958C52.3611 81.6195 51.1731 81.613 50.6383 81.7826ZM66.8669 81.7809C65.0757 82.3412 63.5057 83.9189 62.9608 85.7059C62.7991 86.2363 62.77 86.5234 62.8104 87.1906C62.8705 88.1852 63.1043 88.8478 63.7356 89.8124C64.3127 90.6942 65.0136 91.3111 66.0262 91.8281L66.8181 92.2324L66.8184 97.7162L66.8189 103.2H68.1633H69.5077V97.7133V92.2266L70.2039 91.8796C70.9501 91.5079 71.7124 90.9035 72.2647 90.2456C73.1494 89.1919 73.4448 88.3973 73.4448 87.0715C73.4448 85.4363 73.0567 84.5179 71.8605 83.3232C71.0271 82.4908 70.2806 82.0497 69.2715 81.7934C68.5887 81.6199 67.4013 81.6138 66.8669 81.7809ZM34.4851 84.6481C34.9682 84.9306 35.478 85.6216 35.572 86.1215C35.6874 86.7354 35.562 87.9891 35.3428 88.4128C35.1129 88.8569 34.6579 89.2763 34.1967 89.4692C33.7609 89.6513 32.3914 89.6351 31.8204 89.4409C30.885 89.123 30.3285 88.2349 30.3285 87.0602C30.3285 85.8362 30.7977 84.9896 31.7202 84.5489C32.1489 84.344 32.3014 84.3233 33.1271 84.3574C33.9129 84.3899 34.1186 84.4339 34.4851 84.6481ZM53.3271 84.5936C53.5383 84.7017 53.8063 84.892 53.9225 85.0163C54.8211 85.9772 54.7692 88.0943 53.8249 89.0061C53.3584 89.4564 52.8871 89.6112 51.9924 89.6079C50.7071 89.6031 49.9918 89.2452 49.5768 88.399C49.2694 87.7723 49.1893 87.0776 49.3373 86.3204C49.5249 85.3609 49.9989 84.7797 50.8542 84.4605C51.3888 84.2609 52.8287 84.3385 53.3271 84.5936ZM69.5741 84.602C70.3702 85.0077 70.7881 85.8226 70.7853 86.9641C70.7832 87.8599 70.5411 88.5353 70.0535 89.0061C69.5896 89.4538 69.1218 89.6079 68.2269 89.6076C66.9354 89.6071 66.222 89.2482 65.7992 88.3863C65.4753 87.7258 65.4078 86.9413 65.6078 86.1624C65.8416 85.2524 66.2647 84.7671 67.096 84.456C67.6268 84.2572 69.0636 84.342 69.5741 84.602ZM88.485 84.5954C89.3313 85.0337 89.703 85.7378 89.7102 86.9162C89.7163 87.8895 89.5759 88.3437 89.1097 88.8595C88.5924 89.4319 88.1562 89.5939 87.1287 89.5952C86.1123 89.5967 85.495 89.368 85.0016 88.8075C84.5825 88.3313 84.4399 87.8557 84.4493 86.9641C84.4627 85.6786 84.9851 84.8388 86.0076 84.4586C86.5506 84.2568 87.984 84.3359 88.485 84.5954Z" fill="white"/>
</svg>
