<svg width="120" height="120" viewBox="0 0 120 120" fill="none" xmlns="http://www.w3.org/2000/svg">
<path fill-rule="evenodd" clip-rule="evenodd" d="M77.3449 20.6011C76.1518 20.8587 75.5552 21.1896 74.2259 22.3313C70.9384 25.155 64.695 30.3069 64.3396 30.4892C64.1152 30.6043 63.8915 30.6586 63.8423 30.6098C63.7932 30.5612 63.753 29.4473 63.753 28.1348C63.753 25.6055 63.6819 25.2684 62.9882 24.512C62.3636 23.8308 62.1032 23.7832 59.0223 23.7864C55.8319 23.7898 55.3628 23.8885 54.5797 24.7212C53.8339 25.5142 53.7787 26.0176 53.778 32.043C53.7773 37.0552 53.7542 37.6008 53.5287 37.9475C53.3919 38.1576 50.5211 40.5188 47.1493 43.1944C40.2891 48.6381 39.4892 49.323 39.0941 50.0914C38.6106 51.0315 38.783 52.0169 39.5519 52.7082C40.274 53.3574 40.4744 53.3944 43.662 53.4679L46.7255 53.5386L46.7653 70.0772C46.7935 81.7911 46.7591 86.8014 46.6477 87.2519C46.4442 88.0746 45.933 88.7298 45.1855 89.1261C44.5883 89.4428 44.5853 89.4429 36.0032 89.4835C28.6389 89.5183 27.4182 89.4954 27.4182 89.3221C27.4182 89.0935 27.4198 89.0939 24.9959 88.5941C24.0163 88.3921 23.1026 88.1939 22.9654 88.1539C22.7571 88.093 22.7161 87.9094 22.7161 87.0387C22.7161 86.4654 22.6572 85.9603 22.5854 85.9162C22.4676 85.844 20.5555 85.5353 13.7393 84.4876C12.5245 84.3008 11.4539 84.1468 11.36 84.1451C11.2551 84.1432 11.1727 83.8561 11.1462 83.4L11.1032 82.6579L10.19 82.6152C9.55577 82.5856 9.24086 82.6287 9.15908 82.7565C9.09439 82.8577 9.04052 83.5926 9.03924 84.3895L9.0371 85.8383H5.11865H1.2002V86.8278V87.8173H5.11865H9.0371V90.5031V93.1888H5.11865H1.2002V94.1783V95.1678H5.11865H9.0371L9.03924 96.6167C9.04052 97.4137 9.09439 98.1484 9.15908 98.2496C9.24086 98.3774 9.55577 98.4205 10.19 98.391L11.1032 98.3483L11.1457 97.6226L11.1881 96.897L16.1328 95.9461C18.8523 95.4231 21.4301 94.9216 21.8611 94.8314L22.6448 94.6675L22.687 93.7943C22.7359 92.7841 22.5173 92.915 24.9959 92.4126C25.9755 92.214 26.9212 92.02 27.0976 91.9814C27.2739 91.9428 27.4182 91.817 27.4182 91.7019C27.4182 91.5194 28.509 91.4926 35.9416 91.4926C43.3479 91.4926 44.5661 91.4629 45.2346 91.2658C46.8488 90.7903 47.9969 89.6851 48.5561 88.0684L48.8629 87.1812V70.2892V53.3973L48.5444 52.7612C48.3688 52.4108 47.9898 51.9663 47.7003 51.7717C47.186 51.4259 47.1077 51.4173 44.1003 51.3722C42.4094 51.3469 40.9652 51.2675 40.891 51.1959C40.6805 50.9928 41.6559 50.1624 48.5263 44.6944C54.4551 39.976 55.2286 39.302 55.5722 38.555C55.6438 38.3995 55.7344 35.579 55.7736 32.2874L55.8448 26.3024L56.1812 26.0324C56.4835 25.7897 56.7686 25.7623 58.9904 25.7623C61.2893 25.7623 61.4734 25.7815 61.6107 26.0357C61.6953 26.1927 61.7581 27.3083 61.7581 28.6553C61.7581 30.3274 61.8143 31.1322 61.9535 31.4564C62.4699 32.6587 63.7208 33.0141 65.0924 32.3485C65.8366 31.9872 68.4774 29.8607 73.941 25.2229C75.3516 24.0254 76.7836 22.9254 77.1232 22.7784C77.8638 22.4577 78.9624 22.4329 79.6582 22.7213C80.1884 22.9411 81.0899 23.6391 94.8156 34.4558C96.5123 35.7929 101.642 39.8335 104.505 42.0876C115.747 50.9397 115.667 50.8742 115.534 51.0872C115.493 51.1527 114.248 51.2063 112.766 51.2063C109.715 51.2063 108.935 51.3776 108.103 52.2308C107.074 53.2852 107.149 51.9847 107.07 70.1479L106.998 86.4744L106.619 87.1105C106.099 87.9834 105.581 88.4387 104.576 88.9048L103.721 89.3016L93.0786 89.3411C82.5661 89.3803 82.4248 89.3772 81.5369 89.0817C80.5033 88.7378 79.8047 88.2579 79.4153 87.6242C79.1722 87.229 79.1428 86.8899 79.1424 84.4767C79.1418 81.9509 79.1595 81.7675 79.409 81.7027C79.6142 81.6494 79.8976 80.9743 80.6311 78.7909L81.5862 75.9484L82.4236 75.5056C83.5356 74.9177 84.3535 74.2056 84.7394 73.49C85.0407 72.9312 85.0571 72.7203 85.099 68.8829C85.1232 66.671 85.106 64.715 85.0607 64.5362C84.9978 64.2877 84.8782 64.211 84.5537 64.211C84.1532 64.211 84.1289 64.1787 84.1289 63.6455C84.1289 63.1801 84.0801 63.0801 83.8524 63.0801C83.4238 63.0801 83.3991 62.8903 83.7417 62.2258C84.2245 61.2887 84.5715 61.1132 86.418 60.8726C88.2636 60.6321 88.6756 60.506 89.1077 60.0499C89.7766 59.3434 89.5391 57.9328 88.6765 57.4904C88.1691 57.23 87.6638 57.232 85.6655 57.5014C84.4913 57.6598 83.82 57.8324 83.1764 58.1419C81.6904 58.8561 80.4923 60.4307 80.0891 62.1999C79.9087 62.9916 79.893 63.0104 79.3808 63.0533C78.8734 63.0958 78.8568 63.1148 78.8568 63.654V64.211H78.1444H77.4319V63.6455C77.4319 63.0955 77.4186 63.0801 76.9419 63.0801C76.4652 63.0801 76.4495 63.062 76.3608 62.4087C76.2152 61.3362 75.8733 60.2416 75.426 59.416C75.1976 58.9947 75.0265 58.6373 75.0458 58.6221C75.0819 58.5934 78.4446 58.1617 84.5564 57.4013C86.4765 57.1624 88.2544 56.8831 88.5074 56.7809C88.7604 56.6786 89.0967 56.3843 89.2549 56.1268C89.9872 54.9354 89.1857 53.6089 87.7339 53.6096C87.4361 53.6097 85.1727 53.8654 82.704 54.178C80.2354 54.4904 75.9394 55.0303 73.1573 55.3777C70.3752 55.7251 67.8706 56.0726 67.5916 56.1499C66.5539 56.4373 66.0297 57.594 66.515 58.5252C66.9031 59.2695 67.2354 59.4049 68.6751 59.4049C69.504 59.4049 70.2196 59.4887 70.6586 59.6371C71.593 59.9529 72.372 60.7536 72.6507 61.6844C72.9776 62.7764 72.9482 63.0801 72.5161 63.0801C72.1963 63.0801 72.1598 63.1372 72.1598 63.6378V64.1954L71.483 64.2385L70.8062 64.2816L70.7653 68.3103C70.7367 71.1213 70.776 72.5254 70.8953 72.9558C71.1215 73.7731 72.0913 74.7226 73.4411 75.4487L74.4923 76.0141L75.5119 78.8413C76.1964 80.7395 76.6051 81.6826 76.7554 81.7116C76.9482 81.7489 76.9864 82.1524 77.0294 84.6094C77.0752 87.2222 77.1069 87.5237 77.405 88.1707C78.03 89.5274 79.5535 90.6812 81.3504 91.1585C82.2887 91.4079 102.922 91.4403 104.106 91.1943C106.006 90.7996 107.751 89.4127 108.666 87.5694L109.136 86.6219L109.209 70.2217C109.25 61.2015 109.298 53.8069 109.316 53.7892C109.811 53.312 110.174 53.2546 113.13 53.1852C116.049 53.1167 116.155 53.104 116.662 52.7612C117.596 52.1302 117.85 51.1002 117.345 49.9977C117.071 49.3982 116.96 49.3049 109.92 43.7611C108.235 42.4343 101.149 36.8519 94.1744 31.3557C87.1996 25.8594 81.2018 21.2132 80.846 21.0307C80.2827 20.7418 78.8135 20.369 78.3675 20.4019C78.284 20.4082 77.8238 20.4978 77.3449 20.6011ZM85.4113 37.8589C84.6668 37.9601 81.4929 38.3682 78.3581 38.7656C75.2234 39.1629 71.4792 39.6383 70.0378 39.8218C68.045 40.0757 67.3278 40.2211 67.0455 40.429C66.2665 41.0027 66.1031 41.9424 66.6437 42.7394C67.2004 43.5601 67.5364 43.5903 71.0912 43.1384C80.6219 41.927 85.7659 41.2784 86.9075 41.1442C88.3976 40.969 88.8804 40.7629 89.2643 40.1383C89.5953 39.6 89.6142 39.2084 89.3411 38.5598C88.9498 37.6309 88.1432 37.487 85.4113 37.8589ZM80.9229 43.7871C77.7098 44.1976 73.4779 44.7342 71.5186 44.9796C69.5594 45.2248 67.7575 45.4876 67.5143 45.5635C66.186 45.9784 65.9194 47.7358 67.0624 48.5433C67.5992 48.9224 68.2025 48.8855 74.2259 48.1045C76.6554 47.7894 80.7591 47.2736 83.3452 46.9581C85.9314 46.6427 88.2563 46.2935 88.5115 46.1822C89.0538 45.9456 89.5422 45.2255 89.543 44.6615C89.5438 44.0921 89.1765 43.47 88.6933 43.2221C88.0849 42.91 87.3937 42.9603 80.9229 43.7871ZM85.8388 48.7441C85.0943 48.8461 81.4074 49.3163 77.6457 49.7893C73.884 50.2623 70.0816 50.7428 69.1962 50.857C68.3106 50.9713 67.398 51.1613 67.1682 51.2793C65.9418 51.9084 66.1202 53.7665 67.4597 54.3169C67.7793 54.4482 68.3203 54.4227 70.1173 54.1913C71.3582 54.0314 74.9384 53.5789 78.0732 53.1857C81.2079 52.7924 84.7975 52.3401 86.0498 52.1805C88.5443 51.8627 88.9835 51.6982 89.343 50.9465C89.897 49.7885 88.9873 48.4856 87.6627 48.5397C87.4041 48.5503 86.5833 48.6424 85.8388 48.7441ZM84.4139 68.7389C84.4139 71.6234 84.3669 72.6715 84.222 73.0149C83.9772 73.5948 83.0588 74.4184 82.1439 74.8784C81.4397 75.2324 81.3899 75.2367 78.0019 75.2367C74.587 75.2367 74.5696 75.2351 73.8294 74.8666C73.4206 74.6631 72.8221 74.2841 72.4995 74.0246C71.4715 73.1972 71.4474 73.0765 71.4474 68.7483V64.9177H77.9307H84.4139V68.7389ZM72.4448 71.1374C72.4448 71.2293 74.4397 71.2787 78.1444 71.2787C81.8491 71.2787 83.844 71.2293 83.844 71.1374C83.844 71.0455 81.8491 70.996 78.1444 70.996C74.4397 70.996 72.4448 71.0455 72.4448 71.1374ZM80.0096 78.5232L79.1891 80.9616L78.1108 81.0026L77.0324 81.0437L76.8066 80.4372C76.4381 79.4477 75.2946 76.1968 75.2946 76.1385C75.2946 76.109 76.5401 76.0848 78.0623 76.0848H80.83L80.0096 78.5232ZM10.462 90.5031V97.7122H10.1058H9.74955V90.5031V83.2939H10.1058H10.462V90.5031ZM15.3066 85.4173C17.305 85.7274 19.6295 86.0871 20.4719 86.2169L22.0036 86.4525V90.2844V94.1161L19.9019 94.5191C18.746 94.7408 16.3635 95.2 14.6076 95.5397C12.8515 95.8794 11.3608 96.1573 11.2947 96.1573C11.2286 96.1573 11.1744 93.6129 11.1744 90.5031C11.1744 85.2114 11.1904 84.849 11.4238 84.8511C11.561 84.8524 13.3082 85.1071 15.3066 85.4173ZM12.9707 88.679C13.3708 89.0991 14.2512 90.0154 14.9272 90.7151L16.1563 91.9873L16.159 91.1745C16.1604 90.7274 16.1956 90.3617 16.2374 90.3617C16.2791 90.3617 17.0966 90.9212 18.0541 91.6049C20.2751 93.191 20.3359 93.2239 19.6526 92.4717C19.3391 92.1267 18.2811 90.9597 17.3015 89.8784L15.5204 87.9126L15.4491 88.8594L15.3779 89.8062L14.3092 89.1533C12.0954 87.8006 12.1538 87.8213 12.9707 88.679ZM24.7109 89.2273C26.8785 89.6578 26.7058 89.5468 26.7058 90.5099C26.7058 91.261 26.6733 91.3532 26.3852 91.4182C26.2088 91.4581 25.4234 91.6223 24.6397 91.7831C23.856 91.9438 23.1026 92.1076 22.9654 92.1469C22.7377 92.2122 22.7161 92.0697 22.7161 90.5031C22.7161 88.9366 22.7377 88.7939 22.9654 88.859C23.1026 88.8981 23.888 89.0639 24.7109 89.2273Z" fill="white"/>
</svg>
